<?xml version="1.0" encoding="UTF-8"?>
<svg width="42px" height="43px" viewBox="0 0 42 43" version="1.1" xmlns="http://www.w3.org/2000/svg" xmlns:xlink="http://www.w3.org/1999/xlink">
    <!-- Generator: sketchtool 39.1 (31720) - http://www.bohemiancoding.com/sketch -->
    <title>2FC014FD-1695-4F91-B264-276322A0499E</title>
    <desc>Created with sketchtool.</desc>
    <defs></defs>
    <g id="Page-1" stroke="none" stroke-width="1" fill="none" fill-rule="evenodd">
        <g id="Desktop-Copy-7" transform="translate(-967.000000, -391.000000)">
            <g id="Group-22" transform="translate(877.000000, 241.000000)">
                <g id="addCartIcon" transform="translate(88.000000, 148.000000)">
                    <g id="Group">
                        <path d="M0,0 L49,0 L49,49 L0,49 L0,0 Z M37.3829167,12.25 L31.7479167,22.4583333 L37.3829167,12.25 Z" id="Shape"></path>
                        <path d="M22.4583333,18.375 L26.5416667,18.375 L26.5416667,12.25 L32.6666667,12.25 L32.6666667,8.16666667 L26.5416667,8.16666667 L26.5416667,2.04166667 L22.4583333,2.04166667 L22.4583333,8.16666667 L16.3333333,8.16666667 L16.3333333,12.25 L22.4583333,12.25 L22.4583333,18.375 L22.4583333,18.375 Z M14.2916667,36.75 C12.0458333,36.75 10.22875,38.5875 10.22875,40.8333333 C10.22875,43.0791667 12.0458333,44.9166667 14.2916667,44.9166667 C16.5375,44.9166667 18.375,43.0791667 18.375,40.8333333 C18.375,38.5875 16.5375,36.75 14.2916667,36.75 L14.2916667,36.75 Z M34.7083333,36.75 C32.4625,36.75 30.6454167,38.5875 30.6454167,40.8333333 C30.6454167,43.0791667 32.4625,44.9166667 34.7083333,44.9166667 C36.9541667,44.9166667 38.7916667,43.0791667 38.7916667,40.8333333 C38.7916667,38.5875 36.9541667,36.75 34.7083333,36.75 L34.7083333,36.75 Z M14.63875,30.1145833 L14.7,29.8695833 L16.5375,26.5416667 L31.7479167,26.5416667 C33.2791667,26.5416667 34.6266667,25.7045833 35.3208333,24.43875 L43.2016667,10.1266667 L39.6491667,8.16666667 L39.62875,8.16666667 L37.3829167,12.25 L31.7479167,22.4583333 L17.4154167,22.4583333 L17.15,21.9070833 L12.5766667,12.25 L10.6370833,8.16666667 L8.71791667,4.08333333 L2.04166667,4.08333333 L2.04166667,8.16666667 L6.125,8.16666667 L13.475,23.6629167 L10.71875,28.665 C10.3920833,29.2366667 10.2083333,29.9104167 10.2083333,30.625 C10.2083333,32.8708333 12.0458333,34.7083333 14.2916667,34.7083333 L38.7916667,34.7083333 L38.7916667,30.625 L15.1491667,30.625 C14.88375,30.625 14.63875,30.4004167 14.63875,30.1145833 L14.63875,30.1145833 Z" id="Shape" fill="#000000"></path>
                    </g>
                </g>
            </g>
        </g>
    </g>
</svg>