<?xml version="1.0" encoding="UTF-8"?>
<svg width="229px" height="122px" viewBox="0 0 229 122" version="1.1" xmlns="http://www.w3.org/2000/svg" xmlns:xlink="http://www.w3.org/1999/xlink">
    <!-- Generator: sketchtool 39.1 (31720) - http://www.bohemiancoding.com/sketch -->
    <title>2C7B9AEE-DDCB-41BE-895E-DB31C301D4F4</title>
    <desc>Created with sketchtool.</desc>
    <defs>
        <rect id="path-1" x="0.817520383" y="10.6097545" width="35.2677605" height="99.6333228" rx="2"></rect>
        <mask id="mask-2" maskContentUnits="userSpaceOnUse" maskUnits="objectBoundingBox" x="0" y="0" width="35.2677605" height="99.6333228" fill="white">
            <use xlink:href="#path-1"></use>
        </mask>
        <path d="M11.7626874,22.0172816 C11.7626874,21.1517416 12.4653583,20.4500827 13.3332178,20.4500827 L24.3617216,20.4500827 C25.2291016,20.4500827 25.932252,21.1519119 25.932252,22.0172816 L25.932252,100.065591 C25.932252,100.931131 25.2295811,101.63279 24.3617216,101.63279 L13.3332178,101.63279 C12.4658378,101.63279 11.7626874,100.930961 11.7626874,100.065591 L11.7626874,22.0172816" id="path-3"></path>
        <mask id="mask-4" maskContentUnits="userSpaceOnUse" maskUnits="objectBoundingBox" x="0" y="0" width="14.1695646" height="81.1827074" fill="white">
            <use xlink:href="#path-3"></use>
        </mask>
        <rect id="path-5" x="76" y="0" width="153" height="122" rx="3"></rect>
        <mask id="mask-6" maskContentUnits="userSpaceOnUse" maskUnits="objectBoundingBox" x="0" y="0" width="153" height="122" fill="white">
            <use xlink:href="#path-5"></use>
        </mask>
    </defs>
    <g id="Page-1" stroke="none" stroke-width="1" fill="none" fill-rule="evenodd">
        <g id="Desktop" transform="translate(-932.000000, -2218.000000)" stroke="#979797">
            <g id="step3" transform="translate(932.000000, 2218.000000)">
                <use id="Rectangle-5-Copy-2" mask="url(#mask-2)" stroke-width="2" fill="#FFFFFF" xlink:href="#path-1"></use>
                <use id="Rectangle-3-Copy" mask="url(#mask-4)" stroke-width="2" fill="#FFFFFF" xlink:href="#path-3"></use>
                <use id="Rectangle-5-Copy" mask="url(#mask-6)" stroke-width="3" fill="#FFFFFF" xlink:href="#path-5"></use>
                <path d="" id="Path-6"></path>
                <g id="Group-8" transform="translate(125.000000, 38.000000)" stroke-width="1.5">
                    <g id="Group-7">
                        <polygon id="Path-7" points="0 21.0078443 12.7400241 0 19.0492691 0 44.4496789 0 57.8744911 21.1778887 49.2226614 26.3254228 44.4496789 21.5557356 44.7122044 48.9419521 13.0877603 48.9419521 13.0877603 21.5557356 8.67825664 26.1533828"></polygon>
                    </g>
                    <path d="M12.9989473,0.0573408404 C12.9989473,0.0573408404 18.7269637,7.97703505 13.1902642,21.5004024" id="Path-8"></path>
                    <path d="M42.0289855,0 C42.0289855,0 47.7570019,7.91969421 42.2203025,21.4430615" id="Path-8" transform="translate(43.330702, 10.721531) scale(-1, 1) translate(-43.330702, -10.721531) "></path>
                    <path d="M20.1313833,0.0654975704 C20.1313833,0.0654975704 24.1828301,5.2072276 28.5138605,5.2072276 C32.8448908,5.2072276 37.1077438,0.0679302149 37.1077438,0.0679302149" id="Path-9"></path>
                </g>
            </g>
        </g>
    </g>
</svg>