<?xml version="1.0" encoding="UTF-8"?>
<svg width="210px" height="68px" viewBox="0 0 210 68" version="1.1" xmlns="http://www.w3.org/2000/svg" xmlns:xlink="http://www.w3.org/1999/xlink">
    <!-- Generator: sketchtool 39.1 (31720) - http://www.bohemiancoding.com/sketch -->
    <title>9110473E-2A28-4C75-BF31-38EE0D11851C</title>
    <desc>Created with sketchtool.</desc>
    <defs>
        <rect id="path-1" x="-7.10542736e-15" y="0" width="14" height="58" rx="1.44"></rect>
        <mask id="mask-2" maskContentUnits="userSpaceOnUse" maskUnits="objectBoundingBox" x="0" y="0" width="14" height="58" fill="white">
            <use xlink:href="#path-1"></use>
        </mask>
    </defs>
    <g id="Page-1" stroke="none" stroke-width="1" fill="none" fill-rule="evenodd">
        <g id="Desktop-Copy-7" transform="translate(-205.000000, -1945.000000)">
            <g id="wandIcons2" transform="translate(205.000000, 1945.000000)">
                <g id="Group-16" transform="translate(145.000000, 2.000000)">
                    <g id="Group">
                        <polygon id="Shape" points="0 0 64 0 64 64 0 64"></polygon>
                        <path d="M51.6,26.7733333 C49.7866667,17.5733333 41.7066667,10.6666667 32,10.6666667 C24.2933333,10.6666667 17.6,15.04 14.2666667,21.44 C6.24,22.2933333 0,29.0933333 0,37.3333333 C0,46.16 7.17333333,53.3333333 16,53.3333333 L50.6666667,53.3333333 C58.0266667,53.3333333 64,47.36 64,40 C64,32.96 58.5333333,27.2533333 51.6,26.7733333 L51.6,26.7733333 Z" id="Shape" stroke="#979797" stroke-width="2"></path>
                    </g>
                    <g id="Group" transform="translate(22.000000, 26.000000)" fill="#979797">
                        <path d="M6.33962264,15.3018868 C5.34339623,15.3018868 4.53735849,16.1169811 4.53735849,17.1132075 C4.53735849,18.109434 5.34339623,18.9245283 6.33962264,18.9245283 C7.33584906,18.9245283 8.1509434,18.109434 8.1509434,17.1132075 C8.1509434,16.1169811 7.33584906,15.3018868 6.33962264,15.3018868 L6.33962264,15.3018868 Z M0.905660377,0.811320755 L0.905660377,2.62264151 L2.71698113,2.62264151 L5.97735849,9.49660377 L4.75471698,11.7154717 C4.60981132,11.9690566 4.52830189,12.2679245 4.52830189,12.5849057 C4.52830189,13.5811321 5.34339623,14.3962264 6.33962264,14.3962264 L17.2075472,14.3962264 L17.2075472,12.5849057 L6.72,12.5849057 C6.59320755,12.5849057 6.49358491,12.485283 6.49358491,12.3584906 L6.52075472,12.2498113 L7.33584906,10.7735849 L14.0830189,10.7735849 C14.7622642,10.7735849 15.36,10.4022642 15.6679245,9.84075472 L18.9101887,3.96301887 C18.9826415,3.83622642 19.0188679,3.68226415 19.0188679,3.52830189 C19.0188679,3.03018868 18.6113208,2.62264151 18.1132075,2.62264151 L4.71849057,2.62264151 L3.86716981,0.811320755 L0.905660377,0.811320755 L0.905660377,0.811320755 Z M15.3962264,15.3018868 C14.4,15.3018868 13.5939623,16.1169811 13.5939623,17.1132075 C13.5939623,18.109434 14.4,18.9245283 15.3962264,18.9245283 C16.3924528,18.9245283 17.2075472,18.109434 17.2075472,17.1132075 C17.2075472,16.1169811 16.3924528,15.3018868 15.3962264,15.3018868 L15.3962264,15.3018868 Z" id="Shape"></path>
                    </g>
                </g>
                <g id="Group-13" transform="translate(103.500000, 34.000000) rotate(-360.000000) translate(-103.500000, -34.000000) translate(86.000000, 29.000000)" stroke="#979797" stroke-width="2" stroke-linecap="round" stroke-linejoin="round">
                    <path d="M1.81034483,5 L33.1896552,5" id="Line"></path>
                    <path d="M34.4394375,5 L30.1724138,0" id="Line"></path>
                    <path d="M34.4394375,5 L30.1724138,10" id="Line"></path>
                    <path d="M4.82758621,10 L0.560562528,5" id="Line-Copy" transform="translate(2.694074, 7.500000) rotate(-180.000000) translate(-2.694074, -7.500000) "></path>
                    <path d="M4.82758621,0 L0.560562528,5" id="Line-Copy-3" transform="translate(2.694074, 2.500000) rotate(-180.000000) translate(-2.694074, -2.500000) "></path>
                </g>
                <path d="M5.20574163,0 C2.34258373,0 0,2.78181818 0,6.18181818 L0,61.8181818 C0,65.2181818 2.34258373,68 5.20574163,68 L31.2344498,68 C34.0976077,68 36.4401914,65.2181818 36.4401914,61.8181818 L36.4401914,6.18181818 C36.4401914,2.78181818 34.0976077,0.0309090909 31.2344498,0.0309090909 L5.20574163,0 Z M34.638756,58.5645933 L1.80143541,58.5645933 L1.80143541,9.4354067 L34.638756,9.4354067 L34.638756,58.5645933 L34.638756,58.5645933 Z" id="Shape" fill="#979797"></path>
                <g id="Group-15" transform="translate(48.000000, 5.000000)">
                    <g id="Group-14">
                        <use id="Rectangle-3" stroke="#979797" mask="url(#mask-2)" stroke-width="4" fill="#FFFFFF" transform="translate(7.000000, 29.000000) rotate(-360.000000) translate(-7.000000, -29.000000) " xlink:href="#path-1"></use>
                        <circle id="Oval-6" fill="#979797" cx="7" cy="8" r="1"></circle>
                    </g>
                </g>
            </g>
        </g>
    </g>
</svg>